<?xml version="1.0" standalone="no"?>
<!DOCTYPE svg PUBLIC "-//W3C//DTD SVG 20010904//EN"
 "http://www.w3.org/TR/2001/REC-SVG-20010904/DTD/svg10.dtd">
<svg version="1.0" xmlns="http://www.w3.org/2000/svg"
 width="298.000000pt" height="97.000000pt" viewBox="0 0 298.000000 97.000000"
 preserveAspectRatio="xMidYMid meet">

<g transform="translate(0.000000,97.000000) scale(0.100000,-0.100000)"
fill="#000000" stroke="none">
<path d="M2564 885 c-5 -12 -26 -15 -99 -15 -99 0 -147 -13 -180 -50 -19 -21
-20 -40 -23 -376 -3 -344 -2 -354 18 -374 19 -19 32 -20 194 -20 96 0 181 3
190 6 9 4 16 18 16 35 0 17 10 38 25 53 14 14 25 35 25 46 0 26 -18 62 -36 73
-20 12 -20 382 0 394 18 11 36 47 36 72 0 11 -11 33 -25 49 -14 17 -25 42 -25
56 0 19 -7 29 -25 36 -14 5 -25 14 -25 20 0 16 -60 12 -66 -5z m46 -31 c0 -8
-4 -14 -10 -14 -5 0 -10 9 -10 21 0 11 5 17 10 14 6 -3 10 -13 10 -21z m-130
-102 c0 -55 -4 -92 -12 -100 -7 -7 -44 -12 -95 -12 l-83 0 0 66 c0 36 5 74 10
84 17 31 61 49 123 50 l57 0 0 -88z m90 73 c7 -8 21 -15 32 -15 10 0 21 7 24
15 8 19 24 20 24 1 0 -8 -16 -23 -35 -34 -59 -36 -57 -105 5 -140 l30 -17 0
-177 0 -178 -24 -6 c-13 -3 -32 -21 -42 -39 -24 -45 -11 -84 33 -105 18 -8 33
-23 33 -32 0 -16 -11 -18 -95 -18 l-95 0 0 261 0 261 25 30 c23 27 25 38 25
119 0 87 1 89 24 89 13 0 29 -7 36 -15z m112 -62 c22 -20 23 -51 1 -75 -20
-22 -41 -23 -65 -1 -22 20 -23 51 -1 75 20 22 41 23 65 1z m-252 -233 l0 -80
-70 0 -70 0 0 80 0 80 70 0 70 0 0 -80z m0 -185 l0 -75 -70 0 -70 0 0 75 0 75
70 0 70 0 0 -75z m246 -103 c6 -4 16 -16 22 -28 23 -44 -50 -88 -86 -52 -39
39 18 111 64 80z m-246 -82 l0 -81 -67 3 -68 3 -3 78 -3 77 71 0 70 0 0 -80z"/>
<path d="M2580 460 c0 -80 4 -130 10 -130 6 0 10 50 10 130 0 80 -4 130 -10
130 -6 0 -10 -50 -10 -130z"/>
<path d="M108 828 c-66 -14 -98 -25 -98 -34 0 -22 118 -568 129 -595 5 -13 24
-38 43 -56 32 -31 36 -32 155 -38 l122 -7 19 63 20 64 13 -59 c7 -33 22 -70
33 -82 l21 -23 162 12 c89 7 165 15 169 19 6 7 104 624 104 662 0 10 -14 36
-31 57 -30 38 -33 39 -78 34 -25 -2 -81 -7 -123 -11 -87 -6 -76 9 -99 -134
l-12 -75 -23 75 c-33 109 -48 119 -171 127 -116 7 -103 20 -124 -130 -7 -48
-14 -86 -15 -84 -2 2 -17 47 -33 100 -27 94 -52 138 -75 136 -6 -1 -55 -10
-108 -21z m151 -162 c23 -82 45 -156 50 -164 9 -16 32 69 51 188 23 143 14
128 68 123 134 -11 129 -10 146 -61 8 -26 26 -91 40 -145 13 -54 26 -101 29
-103 6 -6 42 148 57 243 6 37 12 68 13 69 1 1 50 4 108 7 81 5 109 4 117 -6
13 -16 -83 -668 -100 -678 -12 -7 -287 -24 -292 -18 -2 2 -17 62 -35 134 -17
71 -35 133 -40 138 -4 4 -13 -25 -20 -65 -7 -40 -19 -97 -27 -126 l-15 -53
-107 6 c-83 6 -111 11 -126 25 -14 14 -35 94 -82 312 -34 161 -61 295 -59 297
9 9 170 38 176 32 4 -3 26 -73 48 -155z"/>
<path d="M1095 840 c-27 -11 -61 -49 -74 -83 -25 -66 -3 -133 58 -178 33 -25
32 -39 -3 -39 -16 0 -26 -8 -31 -22 -4 -13 -9 -123 -12 -244 l-6 -222 27 -17
c24 -16 36 -16 115 -6 49 6 102 16 118 22 l30 10 6 106 c8 155 -2 344 -20 364
-12 14 -10 20 17 49 24 26 30 41 30 77 0 55 -17 89 -69 136 -55 49 -133 69
-186 47z m123 -29 c49 -25 72 -52 78 -92 12 -75 -42 -129 -129 -129 -110 0
-168 81 -122 170 35 68 102 87 173 51z m52 -483 c0 -112 -4 -208 -8 -214 -10
-17 -77 -33 -147 -36 l-60 -3 0 190 c1 105 4 207 8 228 l8 37 99 0 100 0 0
-202z"/>
<path d="M1899 843 l-96 -4 -11 -67 c-7 -37 -15 -86 -18 -109 -4 -24 -10 -43
-14 -43 -4 0 -18 37 -30 83 -12 45 -31 92 -43 105 -19 20 -28 22 -77 17 -30
-3 -77 -11 -104 -17 -75 -16 -80 -39 -106 -468 -6 -96 -13 -188 -16 -205 -4
-26 0 -33 28 -51 28 -17 48 -20 133 -20 l100 1 5 33 5 34 23 -31 c20 -28 28
-31 75 -30 29 0 72 4 97 7 37 6 46 11 48 31 l4 23 28 -27 c28 -26 30 -27 143
-23 64 1 117 5 120 8 5 7 -19 356 -38 550 -19 191 -26 205 -106 206 -30 0 -97
-1 -150 -3z m193 -73 c15 -120 50 -611 44 -625 -4 -12 -26 -15 -104 -15 l-99
0 -13 98 c-6 53 -14 104 -17 112 -3 8 -17 -31 -32 -88 -15 -58 -33 -107 -41
-111 -8 -5 -43 -11 -77 -14 -72 -8 -73 -7 -93 83 -22 102 -43 171 -49 164 -3
-3 -8 -63 -11 -132 l-5 -127 -95 4 c-52 2 -96 4 -96 5 -1 0 2 26 6 56 5 30 14
154 20 275 6 121 16 243 23 270 15 57 33 67 145 80 49 5 62 4 62 -7 0 -24 83
-288 90 -288 13 0 29 57 45 159 25 159 21 149 68 154 23 2 83 3 132 3 l90 -1
7 -55z"/>
</g>
</svg>
